# xmcd
#
# Track frame offsets: 
#        150
#        14215
#        28513
#        42282
#        59814
#        72192
#        90747
#        101553
#        118033
#        131461
#
# Disc length: 1993 seconds
#
# Revision: 0
# Processed by: cddbd v1.5.2PL0 Copyright (c) Steve Scherf et al.
# Submitted via: ExactAudioCopy v1.0b1
#
DISCID=8d07c70a
DTITLE=Joe Nichols - Greatest Hits
DYEAR=2011
DGENRE=Country
TTITLE0=Gimmie That Girl
TTITLE1=The Shape I'm In
TTITLE2=Tequila Makes Her Clothes Fall Off
TTITLE3=Brokenheartsville
TTITLE4=Size Matters (Someday)
TTITLE5=The Impossible
TTITLE6=What's A Guy Gotta Do
TTITLE7=It Ain't No Crime
TTITLE8=Cool To Be A Fool
TTITLE9=I'll Wait For You
EXTD=
EXTT0=
EXTT1=
EXTT2=
EXTT3=
EXTT4=
EXTT5=
EXTT6=
EXTT7=
EXTT8=
EXTT9=
PLAYORDER=
